<svg xmlns="http://www.w3.org/2000/svg" width="104" height="104" viewBox="0 0 104 104">
  <g id="Group_35" data-name="Group 35" transform="translate(-235 -2413)">
    <rect id="Rectangle_19" data-name="Rectangle 19" width="104" height="104" transform="translate(235 2413)" fill="none"/>
    <g id="Group_31" data-name="Group 31" transform="translate(1.785 51.384)">
      <g id="Icon_feather-layers" data-name="Icon feather-layers" transform="translate(257.26 2385.661)" opacity="0.1">
        <path id="Path_3" data-name="Path 3" d="M33.169,3,3,18.085,33.169,33.169,63.339,18.085Z" transform="translate(-3 -3)" fill="#2a2929" stroke="#2a2929" stroke-linecap="round" stroke-linejoin="round" stroke-width="3"/>
        <path id="Path_4" data-name="Path 4" d="M3,25.5,33.169,40.585,63.339,25.5" transform="translate(-3 19.754)" fill="none" stroke="#2a2929" stroke-linecap="round" stroke-linejoin="round" stroke-width="3"/>
        <path id="Path_5" data-name="Path 5" d="M3,18,33.169,33.085,63.339,18" transform="translate(-3 12.169)" fill="none" stroke="#2a2929" stroke-linecap="round" stroke-linejoin="round" stroke-width="3"/>
      </g>
      <g id="Icon_feather-layers-2" data-name="Icon feather-layers" transform="translate(253.215 2380.616)">
        <path id="Path_3-2" data-name="Path 3" d="M33.169,3,3,18.085,33.169,33.169,63.339,18.085Z" transform="translate(-3 -3)" fill="none" stroke="#2a2929" stroke-linecap="round" stroke-linejoin="round" stroke-width="3"/>
        <path id="Path_4-2" data-name="Path 4" d="M3,25.5,33.169,40.585,63.339,25.5" transform="translate(-3 19.754)" fill="none" stroke="#2a2929" stroke-linecap="round" stroke-linejoin="round" stroke-width="3"/>
        <path id="Path_5-2" data-name="Path 5" d="M3,18,33.169,33.085,63.339,18" transform="translate(-3 12.169)" fill="none" stroke="#2a2929" stroke-linecap="round" stroke-linejoin="round" stroke-width="3"/>
      </g>
    </g>
  </g>
</svg>
