<svg xmlns="http://www.w3.org/2000/svg" width="104" height="104" viewBox="0 0 104 104">
  <g id="Group_37" data-name="Group 37" transform="translate(-470 -2413)">
    <rect id="Rectangle_21" data-name="Rectangle 21" width="104" height="104" transform="translate(470 2413)" fill="none"/>
    <g id="Group_33" data-name="Group 33" transform="translate(107.5 -32.5)">
      <path id="Icon_awesome-pencil-ruler" data-name="Icon awesome-pencil-ruler" d="M11.827,27.6,27.6,11.83l-5.17-5.17L15.2,13.888a.928.928,0,0,1-1.314,0l-2.98-2.98a.928.928,0,0,1,0-1.314l7.228-7.228L15.858.089a3.717,3.717,0,0,0-5.257,0L.089,10.6a3.718,3.718,0,0,0,0,5.257L11.827,27.6ZM60.684,13.911a5.63,5.63,0,0,0,0-7.96l-5.3-5.3a5.631,5.631,0,0,0-7.963,0L42.026,6.04,55.291,19.305ZM37.707,10.36,2.9,45.159.7,57.75a2.488,2.488,0,0,0,2.882,2.878L16.177,58.42l34.8-34.8ZM61.244,45.475,58.969,43.2l-7.228,7.228a.928.928,0,0,1-1.314,0l-2.98-2.98a.93.93,0,0,1,0-1.314l7.228-7.228L49.5,33.733,33.731,49.5,45.474,61.244a3.717,3.717,0,0,0,5.257,0L61.244,50.732a3.717,3.717,0,0,0,0-5.257Z" transform="translate(385.833 2470.167)" fill="#2a2929" stroke="#2a2929" stroke-width="2.5" opacity="0.1"/>
      <path id="Icon_awesome-pencil-ruler-2" data-name="Icon awesome-pencil-ruler" d="M11.827,27.6,27.6,11.83l-5.17-5.17L15.2,13.888a.928.928,0,0,1-1.314,0l-2.98-2.98a.928.928,0,0,1,0-1.314l7.228-7.228L15.858.089a3.717,3.717,0,0,0-5.257,0L.089,10.6a3.718,3.718,0,0,0,0,5.257L11.827,27.6ZM60.684,13.911a5.63,5.63,0,0,0,0-7.96l-5.3-5.3a5.631,5.631,0,0,0-7.963,0L42.026,6.04,55.291,19.305ZM37.707,10.36,2.9,45.159.7,57.75a2.488,2.488,0,0,0,2.882,2.878L16.177,58.42l34.8-34.8ZM61.244,45.475,58.969,43.2l-7.228,7.228a.928.928,0,0,1-1.314,0l-2.98-2.98a.93.93,0,0,1,0-1.314l7.228-7.228L49.5,33.733,33.731,49.5,45.474,61.244a3.717,3.717,0,0,0,5.257,0L61.244,50.732a3.717,3.717,0,0,0,0-5.257Z" transform="translate(382.5 2463.501)" fill="none" stroke="#2a2929" stroke-width="2.5"/>
    </g>
  </g>
</svg>
